<svg width="800" height="800" viewBox="0 0 1024 1024" class="icon" xmlns="http://www.w3.org/2000/svg"><path d="M655.1 877.5H371c-141.3 0-255.9-114.6-255.9-255.9v-19c0-141.3 114.6-255.9 255.9-255.9h284.1c141.3 0 255.9 114.6 255.9 255.9v19c0 141.3-114.6 255.9-255.9 255.9" fill="#FF92B4"/><path d="m373.2 364.5-50.5-35.9c-8.1-5.8-17.8-8.9-27.8-8.9H171.2c-11.3 0-19.7 10.8-16.5 21.8 7.1 24.7 30.8 43.9 91.5 106.5m-98.1 233H78.7c-7.6 0-13.8-6.2-13.8-13.8v-102c0-7.6 6.2-13.8 13.8-13.8h69.4c7.6 0 13.8 6.2 13.8 13.8v102c0 7.7-6.2 13.8-13.8 13.8" fill="#FF92B4"/><path d="M148.1 674.9H78.7c-7.6 0-13.8-6.2-13.8-13.8v-102c0-7.6 6.2-13.8 13.8-13.8h69.4c7.6 0 13.8 6.2 13.8 13.8v102c0 7.6-6.2 13.8-13.8 13.8m300 192.1v57.3c0 7.6-6.2 13.8-13.8 13.8H333.8c-7.6 0-13.8-6.2-13.8-13.8V867c0-7.6 6.2-13.8 13.8-13.8h100.5c7.6 0 13.8 6.2 13.8 13.8m256 0v57.3c0 7.6-6.2 13.8-13.8 13.8H589.9c-7.6 0-13.8-6.2-13.8-13.8V867c0-7.6 6.2-13.8 13.8-13.8h100.5c7.6 0 13.7 6.2 13.7 13.8m143.2-277.3c-3.2 2-7.5 1-9.4-2.3l-16.7-28.6c.7-.4 26.5-15.6 51.7-37.9 27.5-24.3 43.8-47.7 46.7-66.8.5-3.3 3.3-5.8 6.7-5.8H953c3.9 0 7.1 3.4 6.7 7.3-2.8 30.6-23.2 62.8-60.8 95.8-21 18.3-41.7 32.1-51.6 38.3" fill="#FF92B4"/><path d="M233.7 512.1a22.3 22.3 0 1 0 44.6 0 22.3 22.3 0 1 0-44.6 0M581.3 418H427.8c-2.9 0-5.3-2.4-5.3-5.3v-42.8c0-2.9 2.4-5.3 5.3-5.3h153.5c2.9 0 5.3 2.4 5.3 5.3v42.8c.1 2.9-2.3 5.3-5.3 5.3" fill="#444"/><path d="M405.845 169.813a107.292 107.292 0 1 0 214.585 0 107.292 107.292 0 1 0-214.585 0" fill="#FFDA00"/></svg>